<svg xmlns="http://www.w3.org/2000/svg" viewBox="0 0 102.75 64.64"><g id="Calque_2" data-name="Calque 2"><g id="Calque_1-2" data-name="Calque 1"><path d="M84.27,48.8v6.61L75,64.64H64.64l-9.23-9.23h7.81C69.78,55.5,75,58.57,75,62.33V50.8H50.8l-9.25-9.25H63.18C69.74,41.64,75,44.7,75,48.47V36.94H9.23L0,27.71H75V16.22c0,3.77-5.25,6.84-11.81,6.94H23.09l-9.25-9.32H75V2.31c0,3.77-5.25,6.83-11.81,6.92h-54L0,0H75l9.24,9.23v6.62a18.47,18.47,0,0,1-1.49,7.21c-1.27,2.81-3.23,4.61-5.41,4.61H93.59l9.16,9.27H77.35c2.2,0,4.16,1.8,5.41,4.61a18.44,18.44,0,0,1,1.5,7.21"/><polygon points="85.62 55.44 92.8 55.44 92.8 56.83 89.97 56.83 89.97 64.6 88.42 64.6 88.42 56.83 85.59 56.83 85.62 55.44"/><polygon points="93.5 55.44 95.68 55.44 98.14 62.62 100.52 55.44 102.75 55.44 102.75 64.6 101.28 64.6 101.28 57.53 98.82 64.6 97.52 64.6 95.06 57.53 95.06 64.6 93.59 64.6 93.5 55.44"/></g></g></svg>